<?xml version="1.0" encoding="UTF-8" standalone="no"?>
<!DOCTYPE svg PUBLIC "-//W3C//DTD SVG 1.1//EN"
 "http://www.w3.org/Graphics/SVG/1.1/DTD/svg11.dtd">
<!-- Generated by graphviz version 2.34.0 (20140110.0949)
 -->
<!-- Title: G Pages: 1 -->
<svg width="260pt" height="254pt"
 viewBox="0.00 0.00 260.00 254.00" xmlns="http://www.w3.org/2000/svg" xmlns:xlink="http://www.w3.org/1999/xlink">
<g id="graph0" class="graph" transform="scale(1 1) rotate(0) translate(4 250)">
<title>G</title>
<polygon fill="white" stroke="white" points="-4,4 -4,-250 256,-250 256,4 -4,4"/>
<g id="clust1" class="cluster"><title>cluster_kernel</title>
<polygon fill="none" stroke="brown" points="8,-82 8,-166 244,-166 244,-82 8,-82"/>
<text text-anchor="start" x="37.5" y="-146" font-family="Cantarell,sans-serif" font-size="20.00">Linux (kernel mode)</text>
</g>
<!-- nft_nat_postrouting -->
<g id="node1" class="node"><title>nft_nat_postrouting</title>
<path fill="none" stroke="black" d="M28.5,-91C28.5,-91 223.5,-91 223.5,-91 229.5,-91 235.5,-97 235.5,-103 235.5,-103 235.5,-115 235.5,-115 235.5,-121 229.5,-127 223.5,-127 223.5,-127 28.5,-127 28.5,-127 22.5,-127 16.5,-121 16.5,-115 16.5,-115 16.5,-103 16.5,-103 16.5,-97 22.5,-91 28.5,-91"/>
<text text-anchor="middle" x="126" y="-105.3" font-family="Cantarell,sans-serif" font-size="14.00">NFTables 規則 (nat, postrouting)</text>
</g>
<!-- pkt_out -->
<g id="node3" class="node"><title>pkt_out</title>
<path fill="none" stroke="black" d="M54,-1C54,-1 198,-1 198,-1 204,-1 210,-7 210,-13 210,-13 210,-25 210,-25 210,-31 204,-37 198,-37 198,-37 54,-37 54,-37 48,-37 42,-31 42,-25 42,-25 42,-13 42,-13 42,-7 48,-1 54,-1"/>
<text text-anchor="middle" x="126" y="-15.3" font-family="Cantarell,sans-serif" font-size="14.00">DNS response 封包輸出</text>
</g>
<!-- nft_nat_postrouting&#45;&gt;pkt_out -->
<g id="edge2" class="edge"><title>nft_nat_postrouting&#45;&gt;pkt_out</title>
<path fill="none" stroke="black" d="M126,-90.614C126,-78.2403 126,-61.3686 126,-47.2198"/>
<polygon fill="black" stroke="black" points="129.5,-47.0504 126,-37.0504 122.5,-47.0504 129.5,-47.0504"/>
<text text-anchor="start" x="126" y="-61.3" font-family="Cantarell,sans-serif" font-weight="bold" font-size="14.00" fill="red">2</text>
</g>
<!-- pkt_in -->
<g id="node2" class="node"><title>pkt_in</title>
<path fill="none" stroke="black" d="M54,-209C54,-209 198,-209 198,-209 204,-209 210,-215 210,-221 210,-221 210,-233 210,-233 210,-239 204,-245 198,-245 198,-245 54,-245 54,-245 48,-245 42,-239 42,-233 42,-233 42,-221 42,-221 42,-215 48,-209 54,-209"/>
<text text-anchor="middle" x="126" y="-223.3" font-family="Cantarell,sans-serif" font-size="14.00">DNS response 封包輸入</text>
</g>
<!-- pkt_in&#45;&gt;nft_nat_postrouting -->
<g id="edge1" class="edge"><title>pkt_in&#45;&gt;nft_nat_postrouting</title>
<path fill="none" stroke="black" d="M126,-208.884C126,-190.036 126,-159.469 126,-137.304"/>
<polygon fill="black" stroke="black" points="129.5,-137.186 126,-127.186 122.5,-137.186 129.5,-137.186"/>
<text text-anchor="start" x="126" y="-179.3" font-family="Cantarell,sans-serif" font-weight="bold" font-size="14.00" fill="red">1</text>
</g>
</g>
</svg>
